<?xml version="1.0" standalone="no"?>
<!DOCTYPE svg PUBLIC "-//W3C//DTD SVG 20010904//EN"
 "http://www.w3.org/TR/2001/REC-SVG-20010904/DTD/svg10.dtd">
<svg version="1.0" xmlns="http://www.w3.org/2000/svg"
 width="369.441701pt" height="48.098968pt" viewBox="0 0 369.441701 48.098968"
 preserveAspectRatio="xMidYMid meet">
<metadata>
Created by potrace 1.12, written by Peter Selinger 2001-2015
</metadata>
<g transform="translate(-4.382552,59.089254) scale(0.100000,-0.100000)"
fill="#000000" stroke="none">
<path d="M45 580 c-3 -5 1 -10 9 -10 14 0 16 -25 16 -191 0 -177 2 -193 21
-220 11 -16 26 -29 32 -29 7 0 3 7 -8 16 -19 14 -20 29 -23 219 l-4 205 86 0
86 0 2 -142 c3 -255 0 -270 -59 -294 -45 -19 -36 -30 12 -14 67 22 75 48 75
261 0 130 4 189 12 197 9 9 -17 12 -119 12 -77 0 -134 -4 -138 -10z"/>
<path d="M370 580 c0 -5 6 -10 13 -10 125 -5 136 -6 155 -23 34 -31 46 -71 33
-110 -17 -49 -43 -69 -101 -75 l-50 -5 0 82 c0 47 -4 81 -10 81 -6 0 -10 -62
-10 -165 0 -103 4 -165 10 -165 6 0 10 32 10 75 0 69 2 75 20 75 29 0 76 -26
94 -52 11 -15 16 -45 16 -89 0 -71 15 -97 47 -84 16 6 16 8 -4 16 -21 8 -23
15 -23 78 0 64 -3 73 -31 105 l-30 35 30 16 c84 43 78 165 -9 210 -33 17 -160
21 -160 5z"/>
<path d="M670 580 c0 -5 5 -10 10 -10 6 0 10 -80 10 -220 0 -140 -4 -220 -10
-220 -5 0 -10 -5 -10 -11 0 -17 136 -4 166 16 32 21 64 73 64 105 0 31 -32 85
-59 100 -19 10 -19 12 15 43 26 24 37 43 41 75 5 34 3 42 -11 42 -12 0 -16
-10 -16 -38 0 -59 -50 -102 -120 -102 -16 0 -30 4 -32 10 -1 5 -2 52 0 104 3
89 5 94 27 100 32 8 76 -9 102 -41 22 -28 40 -26 30 2 -13 31 -65 52 -137 54
-43 1 -70 -2 -70 -9z m149 -254 c32 -17 51 -54 51 -99 -1 -56 -49 -97 -114
-97 l-36 0 0 105 0 105 35 0 c20 0 48 -6 64 -14z"/>
<path d="M1050 583 c0 -4 -14 -75 -31 -158 -17 -82 -36 -180 -43 -218 -8 -44
-19 -72 -32 -82 -17 -13 -6 -14 108 -15 74 0 129 4 133 10 3 5 0 10 -8 10 -11
0 -26 57 -59 227 -25 131 -49 228 -56 231 -7 2 -12 0 -12 -5z m55 -284 c36
-182 39 -170 -47 -167 -59 2 -72 6 -70 18 2 8 17 83 33 165 40 210 40 210 51
155 5 -25 20 -101 33 -171z"/>
<path d="M1250 581 c0 -6 5 -11 10 -11 6 0 10 -80 10 -220 0 -140 -4 -220 -10
-220 -5 0 -10 -4 -10 -10 0 -11 43 -14 53 -3 4 3 3 11 -1 17 -4 6 -6 90 -4
186 2 108 6 169 12 160 19 -31 22 2 4 52 -15 40 -25 54 -42 56 -12 2 -22 -1
-22 -7z"/>
<path d="M1420 581 c0 -5 6 -11 13 -14 9 -3 12 -48 12 -180 0 -97 -3 -177 -6
-177 -4 0 -26 53 -49 118 -43 116 -55 141 -65 130 -8 -7 116 -338 126 -338 9
0 11 52 11 304 0 119 2 142 16 153 15 11 12 12 -20 13 -21 0 -38 -4 -38 -9z"/>
<path d="M1903 571 c-5 -19 -7 -19 -26 -6 -39 27 -45 15 -11 -19 19 -19 34
-41 34 -50 0 -9 6 -16 13 -16 10 0 14 16 16 49 1 51 -16 80 -26 42z"/>
<path d="M2077 583 c-3 -4 -11 -37 -17 -73 -43 -236 -72 -366 -85 -376 -8 -6
-15 -14 -15 -18 0 -8 235 -8 243 1 4 3 1 11 -6 17 -8 6 -33 108 -56 226 -40
203 -52 243 -64 223z m48 -253 c19 -96 35 -181 35 -187 0 -9 -22 -13 -75 -13
-41 0 -75 3 -75 8 0 4 14 75 30 157 17 83 33 165 37 183 3 18 7 31 9 29 2 -1
19 -81 39 -177z"/>
<path d="M2283 576 c15 -12 17 -35 17 -230 0 -137 -4 -216 -10 -216 -5 0 -10
-4 -10 -10 0 -13 47 -13 55 0 3 6 1 10 -4 10 -7 0 -11 62 -11 187 0 166 2 185
15 167 8 -10 15 -26 15 -34 0 -32 115 -330 127 -330 10 0 13 50 13 223 0 160
3 226 12 235 9 9 4 12 -25 12 -20 0 -37 -4 -37 -10 0 -5 7 -10 15 -10 13 0 15
-27 15 -187 0 -113 -4 -182 -9 -173 -5 8 -30 74 -56 145 -82 232 -84 235 -114
235 -24 -1 -24 -2 -8 -14z"/>
<path d="M2700 587 c0 -3 16 -21 35 -40 19 -19 35 -45 35 -57 0 -11 4 -19 9
-16 12 8 21 59 14 85 -6 24 -23 29 -23 6 0 -11 -7 -10 -35 6 -19 12 -35 19
-35 16z"/>
<path d="M2860 580 c0 -5 7 -10 15 -10 12 0 15 -17 15 -90 0 -57 4 -90 11 -90
6 0 9 31 8 88 l-2 87 71 5 c108 8 98 20 -16 20 -61 0 -102 -4 -102 -10z"/>
<path d="M3067 570 c-6 -25 1 -25 33 0 l25 20 -26 0 c-18 0 -28 -6 -32 -20z"/>
<path d="M3295 568 c-6 -27 -85 -430 -85 -435 0 -2 -7 -3 -15 -3 -8 0 -15 -4
-15 -10 0 -13 247 -13 255 0 3 5 -1 10 -9 10 -9 0 -16 2 -16 4 0 5 -79 407
-85 434 -3 12 -10 22 -15 22 -5 0 -12 -10 -15 -22z m34 -150 c7 -40 19 -98 26
-128 7 -30 16 -79 20 -108 l7 -52 -69 0 c-38 0 -72 2 -74 4 -7 7 63 356 71
356 4 0 12 -33 19 -72z"/>
<path d="M3500 580 c0 -12 10 -13 72 -10 80 3 127 -36 128 -107 0 -60 -31 -93
-94 -100 -60 -7 -67 2 -64 87 1 36 -3 64 -8 63 -5 -2 -10 -75 -12 -164 -2
-127 0 -160 10 -156 9 3 12 24 10 76 l-3 71 28 0 c38 0 91 -34 103 -66 6 -14
10 -54 10 -90 0 -68 11 -85 48 -68 15 7 14 8 -5 11 -21 4 -23 10 -23 63 0 66
-12 105 -42 137 l-20 21 23 13 c83 44 86 161 5 210 -34 21 -166 28 -166 9z"/>
<path d="M1735 557 c-20 -17 -28 -35 -32 -70 -6 -52 -5 -54 140 -182 47 -41
57 -56 57 -82 0 -46 -43 -93 -85 -93 -38 0 -82 31 -87 62 -2 12 -9 23 -15 26
-9 2 -13 -11 -13 -47 0 -45 12 -69 22 -41 2 7 16 5 36 -6 61 -30 140 4 162 70
16 51 1 76 -99 161 -112 96 -124 132 -63 198 31 33 14 36 -23 4z"/>
<path d="M2617 569 c-24 -14 -47 -62 -47 -100 0 -33 16 -52 143 -164 67 -59
74 -93 31 -144 -43 -52 -113 -39 -140 25 -21 50 -34 41 -34 -23 1 -50 2 -56
14 -41 12 17 15 17 45 2 85 -42 185 39 160 129 -9 31 -20 42 -112 115 -95 75
-109 133 -45 187 29 25 20 34 -15 14z"/>
<path d="M2983 413 l-68 -127 -3 47 c-2 26 -7 47 -13 47 -5 0 -9 -48 -9 -111
0 -71 4 -108 10 -104 6 3 10 19 10 35 0 30 58 160 71 160 4 0 13 -16 19 -35 6
-19 16 -35 21 -35 12 0 11 9 -7 63 l-16 47 36 65 c39 71 40 75 27 75 -5 0 -40
-57 -78 -127z"/>
<path d="M3020 277 c0 -2 11 -35 24 -73 14 -38 20 -70 15 -72 -5 -2 -9 -8 -9
-13 0 -12 57 -12 65 1 3 6 0 10 -7 10 -7 0 -26 34 -41 75 -16 41 -32 75 -38
75 -5 0 -9 -1 -9 -3z"/>
<path d="M388 139 c-24 -26 -23 -29 13 -29 24 0 30 3 25 16 -3 9 -6 20 -6 25
0 14 -13 9 -32 -12z"/>
<path d="M3520 145 c0 -8 -4 -15 -10 -15 -5 0 -10 -4 -10 -10 0 -5 14 -10 30
-10 33 0 36 6 16 33 -16 21 -26 22 -26 2z"/>
</g>
</svg>
